# xmcd
#
# Track frame offsets:
#        150
#        18762
#        41615
#        60595
#        77725
#        106640
#        133435
#        153385
#        179215
#        201645
#        222450
#        244270
#        264880
#        282490
#
# Disc length: 4046 seconds
#
# Revision: 3
# Processed by: cddbd v1.5.1PL0 Copyright (c) Steve Scherf et al.
# Submitted via: ExactAudioCopy v0.95a5
#
DISCID=d20fcc0e
DTITLE=Luther Vandross - Dance with My Father
DYEAR=2003
DGENRE=R&B
TTITLE0=If I Didn't Know Better
TTITLE1=Think About You
TTITLE2=If It Aint One Thing Feat. Foxy Brown
TTITLE3=Buy Me a Rose
TTITLE4=The Closer I Get to You Feat. Beyonce Knowles
TTITLE5=Lovely Day Feat. Busta Rhymes
TTITLE6=Dance with My Father
TTITLE7=She Saw You
TTITLE8=Apoligize
TTITLE9=Hit It Again Feat. Queen Latifah
TTITLE10=Right in the Middle
TTITLE11=Once Were Lovers
TTITLE12=Lovely Day Part II Feat. Busta Rhymes
TTITLE13=They Said You Needed Me
EXTD=
EXTT0=
EXTT1=
EXTT2=
EXTT3=
EXTT4=
EXTT5=
EXTT6=
EXTT7=
EXTT8=
EXTT9=
EXTT10=
EXTT11=
EXTT12=
EXTT13=
PLAYORDER=
